<?xml version="1.0" encoding="UTF-8" standalone="no"?>
<!DOCTYPE svg PUBLIC "-//W3C//DTD SVG 1.1//EN" "http://www.w3.org/Graphics/SVG/1.1/DTD/svg11.dtd">
<svg xmlns="http://www.w3.org/2000/svg" version="1.1" viewBox="0.00 0.00 960.00 960.00">
<g stroke-width="2.00" fill="none" stroke-linecap="butt">
<path stroke="#ffcc7b" vector-effect="non-scaling-stroke" d="
  M 731.56 704.28
  C 731.44 703.71 731.39 703.23 731.81 702.74
  C 833.04 584.70 829.75 411.45 726.55 297.09
  C 716.70 286.18 703.52 273.14 693.32 264.42
  C 577.19 165.08 407.51 165.43 291.97 265.35
  C 279.87 275.82 267.19 288.69 257.05 300.20
  C 155.44 415.60 155.17 586.56 254.69 703.14
  Q 254.94 703.43 254.84 703.79
  L 254.71 704.25"
/>
<path stroke="#826d5b" vector-effect="non-scaling-stroke" d="
  M 637.16 593.00
  A 0.34 0.34 0.0 0 1 637.50 593.34
  L 637.50 650.16
  A 0.34 0.34 0.0 0 0 637.84 650.50
  L 655.66 650.50
  A 0.34 0.34 0.0 0 0 656.00 650.16
  L 656.00 325.09
  A 0.34 0.34 0.0 0 0 655.66 324.75
  L 637.84 324.75
  A 0.34 0.34 0.0 0 0 637.50 325.09
  L 637.50 431.91
  A 0.34 0.34 0.0 0 1 637.16 432.25
  L 348.59 432.25
  A 0.34 0.34 0.0 0 1 348.25 431.91
  L 348.25 325.09
  A 0.34 0.34 0.0 0 0 347.91 324.75
  L 330.09 324.75
  A 0.34 0.34 0.0 0 0 329.75 325.09
  L 329.75 650.16
  A 0.34 0.34 0.0 0 0 330.09 650.50
  L 347.91 650.50
  A 0.34 0.34 0.0 0 0 348.25 650.16
  L 348.25 593.34
  A 0.34 0.34 0.0 0 1 348.59 593.00
  L 637.16 593.00"
/>
<path stroke="#826d5b" vector-effect="non-scaling-stroke" d="
  M 424.69 365.10
  A 30.34 30.34 0.0 0 0 394.35 334.76
  A 30.34 30.34 0.0 0 0 364.01 365.10
  A 30.34 30.34 0.0 0 0 394.35 395.44
  A 30.34 30.34 0.0 0 0 424.69 365.10"
/>
<path stroke="#826d5b" vector-effect="non-scaling-stroke" d="
  M 431.50 400.85
  A 0.40 0.40 0.0 0 1 431.10 401.25
  L 365.40 401.25
  A 0.40 0.40 0.0 0 0 365.00 401.65
  L 365.00 419.35
  A 0.40 0.40 0.0 0 0 365.40 419.75
  L 622.85 419.75
  A 0.40 0.40 0.0 0 0 623.25 419.35
  L 623.25 361.04
  A 0.40 0.40 0.0 0 0 622.88 360.64
  L 431.93 345.19
  A 0.40 0.40 0.0 0 0 431.50 345.59
  L 431.50 400.85"
/>
<path stroke="#826d5b" vector-effect="non-scaling-stroke" d="
  M 637.51 451.53
  A 0.53 0.53 0.0 0 0 636.98 451.00
  L 348.78 451.00
  A 0.53 0.53 0.0 0 0 348.25 451.53
  L 348.25 573.97
  A 0.53 0.53 0.0 0 0 348.78 574.50
  L 636.98 574.50
  A 0.53 0.53 0.0 0 0 637.51 573.97
  L 637.51 451.53"
/>
<path stroke="#826d5b" vector-effect="non-scaling-stroke" d="
  M 406.14 365.09
  A 11.79 11.79 0.0 0 0 394.35 353.30
  A 11.79 11.79 0.0 0 0 382.56 365.09
  A 11.79 11.79 0.0 0 0 394.35 376.88
  A 11.79 11.79 0.0 0 0 406.14 365.09"
/>
<path stroke="#826d5b" vector-effect="non-scaling-stroke" d="
  M 604.75 378.17
  A 0.44 0.44 0.0 0 0 604.35 377.73
  L 450.48 365.24
  A 0.44 0.44 0.0 0 0 450.00 365.68
  L 450.00 400.81
  A 0.44 0.44 0.0 0 0 450.44 401.25
  L 604.31 401.25
  A 0.44 0.44 0.0 0 0 604.75 400.81
  L 604.75 378.17"
/>
<path stroke="#826d5b" vector-effect="non-scaling-stroke" d="
  M 424.68 507.22
  A 30.34 30.34 0.0 0 0 394.34 476.88
  A 30.34 30.34 0.0 0 0 364.00 507.22
  A 30.34 30.34 0.0 0 0 394.34 537.56
  A 30.34 30.34 0.0 0 0 424.68 507.22"
/>
<path stroke="#826d5b" vector-effect="non-scaling-stroke" d="
  M 431.50 542.93
  A 0.32 0.32 0.0 0 1 431.18 543.25
  L 365.32 543.25
  A 0.32 0.32 0.0 0 0 365.00 543.57
  L 365.00 561.43
  A 0.32 0.32 0.0 0 0 365.32 561.75
  L 622.93 561.75
  A 0.32 0.32 0.0 0 0 623.25 561.43
  L 623.25 503.10
  A 0.32 0.32 0.0 0 0 622.96 502.78
  L 431.85 487.31
  A 0.32 0.32 0.0 0 0 431.50 487.63
  L 431.50 542.93"
/>
<path stroke="#826d5b" vector-effect="non-scaling-stroke" d="
  M 406.14 507.23
  A 11.79 11.79 0.0 0 0 394.35 495.44
  A 11.79 11.79 0.0 0 0 382.56 507.23
  A 11.79 11.79 0.0 0 0 394.35 519.02
  A 11.79 11.79 0.0 0 0 406.14 507.23"
/>
<path stroke="#826d5b" vector-effect="non-scaling-stroke" d="
  M 604.75 520.19
  A 0.34 0.34 0.0 0 0 604.44 519.85
  L 450.37 507.37
  A 0.34 0.34 0.0 0 0 450.00 507.71
  L 450.00 542.91
  A 0.34 0.34 0.0 0 0 450.34 543.25
  L 604.41 543.25
  A 0.34 0.34 0.0 0 0 604.75 542.91
  L 604.75 520.19"
/>
</g>
<path fill="#fec446" d="
  M 731.56 704.28
  C 731.44 703.71 731.39 703.23 731.81 702.74
  C 833.04 584.70 829.75 411.45 726.55 297.09
  C 716.70 286.18 703.52 273.14 693.32 264.42
  C 577.19 165.08 407.51 165.43 291.97 265.35
  C 279.87 275.82 267.19 288.69 257.05 300.20
  C 155.44 415.60 155.17 586.56 254.69 703.14
  Q 254.94 703.43 254.84 703.79
  L 254.71 704.25
  C 216.10 674.04 182.71 635.46 158.66 592.67
  C 115.77 516.34 98.49 427.13 113.29 339.87
  C 143.64 160.91 291.39 27.75 473.68 17.64
  C 557.70 12.98 641.09 37.55 710.00 84.08
  C 768.23 123.40 814.97 179.81 843.72 243.04
  C 916.38 402.86 870.82 595.50 731.56 704.28
  Z"
/>
<path fill="#ffd3b0" d="
  M 731.56 704.28
  L 494.57 941.30
  Q 493.25 942.62 491.93 941.30
  L 254.71 704.25
  L 254.84 703.79
  Q 254.94 703.43 254.69 703.14
  C 155.17 586.56 155.44 415.60 257.05 300.20
  C 267.19 288.69 279.87 275.82 291.97 265.35
  C 407.51 165.43 577.19 165.08 693.32 264.42
  C 703.52 273.14 716.70 286.18 726.55 297.09
  C 829.75 411.45 833.04 584.70 731.81 702.74
  C 731.39 703.23 731.44 703.71 731.56 704.28
  Z
  M 637.16 593.00
  A 0.34 0.34 0.0 0 1 637.50 593.34
  L 637.50 650.16
  A 0.34 0.34 0.0 0 0 637.84 650.50
  L 655.66 650.50
  A 0.34 0.34 0.0 0 0 656.00 650.16
  L 656.00 325.09
  A 0.34 0.34 0.0 0 0 655.66 324.75
  L 637.84 324.75
  A 0.34 0.34 0.0 0 0 637.50 325.09
  L 637.50 431.91
  A 0.34 0.34 0.0 0 1 637.16 432.25
  L 348.59 432.25
  A 0.34 0.34 0.0 0 1 348.25 431.91
  L 348.25 325.09
  A 0.34 0.34 0.0 0 0 347.91 324.75
  L 330.09 324.75
  A 0.34 0.34 0.0 0 0 329.75 325.09
  L 329.75 650.16
  A 0.34 0.34 0.0 0 0 330.09 650.50
  L 347.91 650.50
  A 0.34 0.34 0.0 0 0 348.25 650.16
  L 348.25 593.34
  A 0.34 0.34 0.0 0 1 348.59 593.00
  L 637.16 593.00
  Z
  M 424.69 365.10
  A 30.34 30.34 0.0 0 0 394.35 334.76
  A 30.34 30.34 0.0 0 0 364.01 365.10
  A 30.34 30.34 0.0 0 0 394.35 395.44
  A 30.34 30.34 0.0 0 0 424.69 365.10
  Z
  M 431.50 400.85
  A 0.40 0.40 0.0 0 1 431.10 401.25
  L 365.40 401.25
  A 0.40 0.40 0.0 0 0 365.00 401.65
  L 365.00 419.35
  A 0.40 0.40 0.0 0 0 365.40 419.75
  L 622.85 419.75
  A 0.40 0.40 0.0 0 0 623.25 419.35
  L 623.25 361.04
  A 0.40 0.40 0.0 0 0 622.88 360.64
  L 431.93 345.19
  A 0.40 0.40 0.0 0 0 431.50 345.59
  L 431.50 400.85
  Z"
/>
<path fill="#040606" d="
  M 637.16 593.00
  L 348.59 593.00
  A 0.34 0.34 0.0 0 0 348.25 593.34
  L 348.25 650.16
  A 0.34 0.34 0.0 0 1 347.91 650.50
  L 330.09 650.50
  A 0.34 0.34 0.0 0 1 329.75 650.16
  L 329.75 325.09
  A 0.34 0.34 0.0 0 1 330.09 324.75
  L 347.91 324.75
  A 0.34 0.34 0.0 0 1 348.25 325.09
  L 348.25 431.91
  A 0.34 0.34 0.0 0 0 348.59 432.25
  L 637.16 432.25
  A 0.34 0.34 0.0 0 0 637.50 431.91
  L 637.50 325.09
  A 0.34 0.34 0.0 0 1 637.84 324.75
  L 655.66 324.75
  A 0.34 0.34 0.0 0 1 656.00 325.09
  L 656.00 650.16
  A 0.34 0.34 0.0 0 1 655.66 650.50
  L 637.84 650.50
  A 0.34 0.34 0.0 0 1 637.50 650.16
  L 637.50 593.34
  A 0.34 0.34 0.0 0 0 637.16 593.00
  Z
  M 637.51 451.53
  A 0.53 0.53 0.0 0 0 636.98 451.00
  L 348.78 451.00
  A 0.53 0.53 0.0 0 0 348.25 451.53
  L 348.25 573.97
  A 0.53 0.53 0.0 0 0 348.78 574.50
  L 636.98 574.50
  A 0.53 0.53 0.0 0 0 637.51 573.97
  L 637.51 451.53
  Z"
/>
<path fill="#040606" d="
  M 424.69 365.10
  A 30.34 30.34 0.0 0 1 394.35 395.44
  A 30.34 30.34 0.0 0 1 364.01 365.10
  A 30.34 30.34 0.0 0 1 394.35 334.76
  A 30.34 30.34 0.0 0 1 424.69 365.10
  Z
  M 406.14 365.09
  A 11.79 11.79 0.0 0 0 394.35 353.30
  A 11.79 11.79 0.0 0 0 382.56 365.09
  A 11.79 11.79 0.0 0 0 394.35 376.88
  A 11.79 11.79 0.0 0 0 406.14 365.09
  Z"
/>
<path fill="#040606" d="
  M 431.50 400.85
  L 431.50 345.59
  A 0.40 0.40 0.0 0 1 431.93 345.19
  L 622.88 360.64
  A 0.40 0.40 0.0 0 1 623.25 361.04
  L 623.25 419.35
  A 0.40 0.40 0.0 0 1 622.85 419.75
  L 365.40 419.75
  A 0.40 0.40 0.0 0 1 365.00 419.35
  L 365.00 401.65
  A 0.40 0.40 0.0 0 1 365.40 401.25
  L 431.10 401.25
  A 0.40 0.40 0.0 0 0 431.50 400.85
  Z
  M 604.75 378.17
  A 0.44 0.44 0.0 0 0 604.35 377.73
  L 450.48 365.24
  A 0.44 0.44 0.0 0 0 450.00 365.68
  L 450.00 400.81
  A 0.44 0.44 0.0 0 0 450.44 401.25
  L 604.31 401.25
  A 0.44 0.44 0.0 0 0 604.75 400.81
  L 604.75 378.17
  Z"
/>
<circle fill="#ffd3b0" cx="394.35" cy="365.09" r="11.79"/>
<path fill="#ffd3b0" d="
  M 604.75 378.17
  L 604.75 400.81
  A 0.44 0.44 0.0 0 1 604.31 401.25
  L 450.44 401.25
  A 0.44 0.44 0.0 0 1 450.00 400.81
  L 450.00 365.68
  A 0.44 0.44 0.0 0 1 450.48 365.24
  L 604.35 377.73
  A 0.44 0.44 0.0 0 1 604.75 378.17
  Z"
/>
<path fill="#ffd3b0" d="
  M 637.51 573.97
  A 0.53 0.53 0.0 0 1 636.98 574.50
  L 348.78 574.50
  A 0.53 0.53 0.0 0 1 348.25 573.97
  L 348.25 451.53
  A 0.53 0.53 0.0 0 1 348.78 451.00
  L 636.98 451.00
  A 0.53 0.53 0.0 0 1 637.51 451.53
  L 637.51 573.97
  Z
  M 424.68 507.22
  A 30.34 30.34 0.0 0 0 394.34 476.88
  A 30.34 30.34 0.0 0 0 364.00 507.22
  A 30.34 30.34 0.0 0 0 394.34 537.56
  A 30.34 30.34 0.0 0 0 424.68 507.22
  Z
  M 431.50 542.93
  A 0.32 0.32 0.0 0 1 431.18 543.25
  L 365.32 543.25
  A 0.32 0.32 0.0 0 0 365.00 543.57
  L 365.00 561.43
  A 0.32 0.32 0.0 0 0 365.32 561.75
  L 622.93 561.75
  A 0.32 0.32 0.0 0 0 623.25 561.43
  L 623.25 503.10
  A 0.32 0.32 0.0 0 0 622.96 502.78
  L 431.85 487.31
  A 0.32 0.32 0.0 0 0 431.50 487.63
  L 431.50 542.93
  Z"
/>
<path fill="#040606" d="
  M 424.68 507.22
  A 30.34 30.34 0.0 0 1 394.34 537.56
  A 30.34 30.34 0.0 0 1 364.00 507.22
  A 30.34 30.34 0.0 0 1 394.34 476.88
  A 30.34 30.34 0.0 0 1 424.68 507.22
  Z
  M 406.14 507.23
  A 11.79 11.79 0.0 0 0 394.35 495.44
  A 11.79 11.79 0.0 0 0 382.56 507.23
  A 11.79 11.79 0.0 0 0 394.35 519.02
  A 11.79 11.79 0.0 0 0 406.14 507.23
  Z"
/>
<path fill="#040606" d="
  M 431.50 542.93
  L 431.50 487.63
  A 0.32 0.32 0.0 0 1 431.85 487.31
  L 622.96 502.78
  A 0.32 0.32 0.0 0 1 623.25 503.10
  L 623.25 561.43
  A 0.32 0.32 0.0 0 1 622.93 561.75
  L 365.32 561.75
  A 0.32 0.32 0.0 0 1 365.00 561.43
  L 365.00 543.57
  A 0.32 0.32 0.0 0 1 365.32 543.25
  L 431.18 543.25
  A 0.32 0.32 0.0 0 0 431.50 542.93
  Z
  M 604.75 520.19
  A 0.34 0.34 0.0 0 0 604.44 519.85
  L 450.37 507.37
  A 0.34 0.34 0.0 0 0 450.00 507.71
  L 450.00 542.91
  A 0.34 0.34 0.0 0 0 450.34 543.25
  L 604.41 543.25
  A 0.34 0.34 0.0 0 0 604.75 542.91
  L 604.75 520.19
  Z"
/>
<circle fill="#ffd3b0" cx="394.35" cy="507.23" r="11.79"/>
<path fill="#ffd3b0" d="
  M 604.75 520.19
  L 604.75 542.91
  A 0.34 0.34 0.0 0 1 604.41 543.25
  L 450.34 543.25
  A 0.34 0.34 0.0 0 1 450.00 542.91
  L 450.00 507.71
  A 0.34 0.34 0.0 0 1 450.37 507.37
  L 604.44 519.85
  A 0.34 0.34 0.0 0 1 604.75 520.19
  Z"
/>
</svg>
